<?xml version="1.0" encoding="iso-8859-1"?>
<!-- Uploaded to: SVG Repo, www.svgrepo.com, Generator: SVG Repo Mixer Tools -->
<svg fill="#000000" height="800px" width="800px" version="1.1" id="Capa_1" xmlns="http://www.w3.org/2000/svg" xmlns:xlink="http://www.w3.org/1999/xlink" 
	 viewBox="0 0 53.807 53.807" xml:space="preserve">
<g>
	<path d="M53.807,21.996c0-6.831-5.299-12.436-12-12.949V8.996h-10v2h9c6.065,0,11,4.935,11,11s-4.935,11-11,11h-28v-7.851
		c0-0.391-0.228-0.747-0.584-0.909c-0.354-0.163-0.773-0.104-1.07,0.152L0.346,33.721C0.126,33.911,0,34.188,0,34.478
		s0.126,0.567,0.346,0.757l10.807,9.333c0.186,0.16,0.418,0.243,0.654,0.243c0.141,0,0.283-0.03,0.416-0.091
		c0.356-0.163,0.584-0.518,0.584-0.909v-8.816h29v-0.051C48.509,34.431,53.807,28.826,53.807,21.996z M10.807,41.627L2.53,34.478
		l8.277-7.148V41.627z"/>
</g>
</svg>